<svg xmlns="http://www.w3.org/2000/svg" viewBox="0 0 200 200">
  <circle cx="100" cy="100" r="96" fill="#F2EFE6"/>
  <ellipse cx="100" cy="104" rx="50" ry="54" fill="#F5CDA7"/>
  <ellipse cx="48" cy="106" rx="9" ry="12" fill="#F5CDA7"/>
  <ellipse cx="152" cy="106" rx="9" ry="12" fill="#F5CDA7"/>
  <path d="M56 84 Q58 48 100 46 Q142 48 144 84 Q136 58 100 56 Q64 58 56 84 Z" fill="#E8E4DC"/><path d="M52 96 Q54 84 62 80 L62 108 Q54 106 52 96Z" fill="#E8E4DC"/><path d="M148 96 Q146 84 138 80 L138 108 Q146 106 148 96Z" fill="#E8E4DC"/>
  
  <circle cx="80" cy="104" r="5" fill="#33261E"/>
  <circle cx="120" cy="104" r="5" fill="#33261E"/>
  <circle cx="82" cy="102" r="1.6" fill="#FFFFFF"/>
  <circle cx="122" cy="102" r="1.6" fill="#FFFFFF"/>
  <path d="M70 122 Q76 118 82 122" fill="none" stroke="#C9A882" stroke-width="2.5"/><path d="M118 122 Q124 118 130 122" fill="none" stroke="#C9A882" stroke-width="2.5"/><path d="M64 94 Q72 88 82 92" fill="none" stroke="#D8D4CA" stroke-width="5" stroke-linecap="round"/><path d="M118 92 Q128 88 136 94" fill="none" stroke="#D8D4CA" stroke-width="5" stroke-linecap="round"/>
  <path d="M88 138 Q100 147 112 138" fill="none" stroke="#A87858" stroke-width="4" stroke-linecap="round"/>
</svg>