<svg xmlns="http://www.w3.org/2000/svg" viewBox="0 0 200 200">
  <circle cx="100" cy="100" r="96" fill="#E8FFE0"/>
  <ellipse cx="100" cy="104" rx="50" ry="54" fill="#FFE3C7"/>
  <ellipse cx="48" cy="106" rx="9" ry="12" fill="#FFE3C7"/>
  <ellipse cx="152" cy="106" rx="9" ry="12" fill="#FFE3C7"/>
  <path d="M56 100 Q54 46 100 44 Q146 46 144 100 Q138 58 100 56 Q62 58 56 100 Z" fill="#C9862E"/><circle cx="54" cy="112" r="9" fill="#C9862E"/><circle cx="52" cy="130" r="8" fill="#C9862E"/><circle cx="54" cy="147" r="7" fill="#C9862E"/><circle cx="146" cy="112" r="9" fill="#C9862E"/><circle cx="148" cy="130" r="8" fill="#C9862E"/><circle cx="146" cy="147" r="7" fill="#C9862E"/>
  
  <circle cx="80" cy="104" r="5" fill="#33261E"/>
  <circle cx="120" cy="104" r="5" fill="#33261E"/>
  <circle cx="82" cy="102" r="1.6" fill="#FFFFFF"/>
  <circle cx="122" cy="102" r="1.6" fill="#FFFFFF"/>
  
  <path d="M84 132 Q100 150 116 132 Z" fill="#FFFFFF" stroke="#B0603C" stroke-width="3"/><line x1="100" y1="133" x2="100" y2="141" stroke="#B0603C" stroke-width="2.5"/>
</svg>