<svg xmlns="http://www.w3.org/2000/svg" viewBox="0 0 200 200">
  <circle cx="100" cy="100" r="96" fill="#DFF1FF"/>
  <ellipse cx="100" cy="104" rx="50" ry="54" fill="#FFD9B8"/>
  <ellipse cx="48" cy="106" rx="9" ry="12" fill="#FFD9B8"/>
  <ellipse cx="152" cy="106" rx="9" ry="12" fill="#FFD9B8"/>
  <path d="M55 78 Q60 38 100 36 Q140 38 145 78 L145 66 Q140 30 100 28 Q60 30 55 66 Z" fill="#3A2E2A"/><path d="M55 80 Q56 46 100 44 Q144 46 145 80 Q140 52 100 50 Q60 52 55 80Z" fill="#3A2E2A"/>
  
  <circle cx="80" cy="104" r="5" fill="#33261E"/>
  <circle cx="120" cy="104" r="5" fill="#33261E"/>
  <circle cx="82" cy="102" r="1.6" fill="#FFFFFF"/>
  <circle cx="122" cy="102" r="1.6" fill="#FFFFFF"/>
  <circle cx="78" cy="102" r="17" fill="none" stroke="#2B4C7E" stroke-width="4"/><circle cx="122" cy="102" r="17" fill="none" stroke="#2B4C7E" stroke-width="4"/><line x1="95" y1="102" x2="105" y2="102" stroke="#2B4C7E" stroke-width="4"/>
  <path d="M88 138 Q100 148 112 138" fill="none" stroke="#B0603C" stroke-width="4" stroke-linecap="round"/>
</svg>