<svg xmlns="http://www.w3.org/2000/svg" viewBox="0 0 200 200">
<defs>
<radialGradient id="bg12" cx="42%" cy="34%" r="75%">
<stop offset="0%" stop-color="#FFF3D6"/>
<stop offset="100%" stop-color="#FFDF9E"/>
</radialGradient>
<radialGradient id="skin12" cx="40%" cy="34%" r="72%">
<stop offset="0%" stop-color="#DCA97F"/>
<stop offset="60%" stop-color="#C68A63"/>
<stop offset="100%" stop-color="#A66A45"/>
</radialGradient>
<linearGradient id="hair12" x1="0" y1="0" x2="0" y2="1">
<stop offset="0%" stop-color="#45A379"/>
<stop offset="55%" stop-color="#2E7D5B"/>
<stop offset="100%" stop-color="#1E5C42"/>
</linearGradient>
<linearGradient id="hairD12" x1="0" y1="0" x2="0" y2="1">
<stop offset="0%" stop-color="#2E7D5B"/>
<stop offset="100%" stop-color="#1E5C42"/>
</linearGradient>
<linearGradient id="hairL12" x1="0" y1="0" x2="0" y2="1">
<stop offset="0%" stop-color="#45A379"/>
<stop offset="100%" stop-color="#2E7D5B"/>
</linearGradient>
<radialGradient id="cheek12" cx="50%" cy="50%" r="50%">
<stop offset="0%" stop-color="#FF8FA3" stop-opacity="0.55"/>
<stop offset="100%" stop-color="#FF8FA3" stop-opacity="0"/>
</radialGradient>
<radialGradient id="iris12" cx="50%" cy="38%" r="60%">
<stop offset="0%" stop-color="#3B2A1E" stop-opacity="0.6"/>
<stop offset="70%" stop-color="#3B2A1E"/>
<stop offset="100%" stop-color="#1a1410"/>
</radialGradient>
<radialGradient id="vig12" cx="50%" cy="50%" r="50%">
<stop offset="70%" stop-color="#000000" stop-opacity="0"/>
<stop offset="100%" stop-color="#000000" stop-opacity="0.10"/>
</radialGradient>
</defs>
<circle cx="100" cy="100" r="98" fill="url(#bg12)"/>
<path d="M44 96 Q40 172 66 182 Q54 150 58 104 Z" fill="url(#hairD12)"/>
<path d="M156 96 Q160 172 134 182 Q146 150 142 104 Z" fill="url(#hairD12)"/>
<!-- 首と落ち影 -->
<ellipse cx="100" cy="188" rx="34" ry="26" fill="#A66A45"/>
<ellipse cx="100" cy="150" rx="52" ry="30" fill="#000000" opacity="0.06"/>
<!-- 耳 -->
<ellipse cx="50" cy="118" rx="10" ry="13" fill="url(#skin12)"/>
<ellipse cx="150" cy="118" rx="10" ry="13" fill="url(#skin12)"/>
<ellipse cx="50" cy="118" rx="4" ry="6" fill="#A66A45" opacity="0.6"/>
<ellipse cx="150" cy="118" rx="4" ry="6" fill="#A66A45" opacity="0.6"/>
<!-- 顔 -->
<path d="M52 108 Q52 62 100 60 Q148 62 148 108 Q148 150 100 162 Q52 150 52 108 Z" fill="url(#skin12)"/>
<!-- 頬の陰影 -->
<path d="M100 60 Q148 62 148 108 Q148 150 100 162 Q126 140 128 108 Q128 74 100 60 Z" fill="#A66A45" opacity="0.18"/>
<path d="M50 92 Q50 40 100 40 Q150 40 150 92 Q146 64 100 62 Q54 64 50 92 Z" fill="url(#hair12)"/>
<path d="M70 58 Q100 50 130 58" stroke="url(#hairL12)" stroke-width="3" stroke-linecap="round" fill="none" opacity="0.7"/>
<!-- チーク -->
<ellipse cx="74" cy="128" rx="13" ry="9" fill="url(#cheek12)"/>
<ellipse cx="126" cy="128" rx="13" ry="9" fill="url(#cheek12)"/>
<g fill="#A66A45" opacity="0.55">
<circle cx="74" cy="120" r="2"/><circle cx="80" cy="126" r="1.8"/><circle cx="70" cy="127" r="1.6"/>
<circle cx="126" cy="120" r="2"/><circle cx="120" cy="126" r="1.8"/><circle cx="130" cy="127" r="1.6"/>
</g>
<!-- 鼻 -->
<path d="M100 116 Q96 128 100 130 Q104 128 100 116" fill="#A66A45" opacity="0.4"/>
<ellipse cx="100" cy="130" rx="4" ry="2.4" fill="#A66A45" opacity="0.35"/>
<ellipse cx="78" cy="112" rx="11" ry="12.5" fill="#ffffff"/>
<ellipse cx="78" cy="112" rx="11" ry="12.5" fill="url(#vig12)"/>
<circle cx="78" cy="113" r="6.6" fill="url(#iris12)"/>
<circle cx="78" cy="113" r="3" fill="#140f0b"/>
<circle cx="75.6" cy="109.5" r="2.2" fill="#ffffff"/>
<circle cx="80" cy="115.5" r="1" fill="#ffffff" opacity="0.7"/>
<path d="M66 104 Q78 98 90 104" fill="none" stroke="#1E5C42" stroke-width="3.4" stroke-linecap="round"/>
<ellipse cx="122" cy="112" rx="11" ry="12.5" fill="#ffffff"/>
<ellipse cx="122" cy="112" rx="11" ry="12.5" fill="url(#vig12)"/>
<circle cx="122" cy="113" r="6.6" fill="url(#iris12)"/>
<circle cx="122" cy="113" r="3" fill="#140f0b"/>
<circle cx="119.6" cy="109.5" r="2.2" fill="#ffffff"/>
<circle cx="124" cy="115.5" r="1" fill="#ffffff" opacity="0.7"/>
<path d="M110 104 Q122 98 134 104" fill="none" stroke="#1E5C42" stroke-width="3.4" stroke-linecap="round"/>
<g opacity="0.92">
<rect x="63" y="98" width="30" height="24" rx="9" fill="#ffffff" fill-opacity="0.18" stroke="#3a3a3a" stroke-width="3.5"/>
<rect x="107" y="98" width="30" height="24" rx="9" fill="#ffffff" fill-opacity="0.18" stroke="#3a3a3a" stroke-width="3.5"/>
<path d="M93 108 Q100 104 107 108" stroke="#3a3a3a" stroke-width="3.5" fill="none"/>
</g>
<path d="M88 142 Q100 150 112 142" fill="none" stroke="#B0603C" stroke-width="4" stroke-linecap="round"/>
<!-- ハイライト(額) -->
<ellipse cx="82" cy="82" rx="14" ry="8" fill="#ffffff" opacity="0.16"/>
</svg>