<svg xmlns="http://www.w3.org/2000/svg" viewBox="0 0 200 200">
  <circle cx="100" cy="100" r="96" fill="#FFF2D8"/>
  <ellipse cx="100" cy="104" rx="50" ry="54" fill="#FFE3C7"/>
  <ellipse cx="48" cy="106" rx="9" ry="12" fill="#FFE3C7"/>
  <ellipse cx="152" cy="106" rx="9" ry="12" fill="#FFE3C7"/>
  <circle cx="65" cy="60" r="16" fill="#E8823C"/><circle cx="88" cy="48" r="17" fill="#E8823C"/><circle cx="112" cy="48" r="17" fill="#E8823C"/><circle cx="135" cy="60" r="16" fill="#E8823C"/><circle cx="55" cy="82" r="13" fill="#E8823C"/><circle cx="145" cy="82" r="13" fill="#E8823C"/>
  
  <circle cx="80" cy="104" r="5" fill="#33261E"/>
  <circle cx="120" cy="104" r="5" fill="#33261E"/>
  <circle cx="82" cy="102" r="1.6" fill="#FFFFFF"/>
  <circle cx="122" cy="102" r="1.6" fill="#FFFFFF"/>
  <circle cx="74" cy="118" r="2.4" fill="#D89058"/><circle cx="84" cy="122" r="2.4" fill="#D89058"/><circle cx="94" cy="119" r="2.4" fill="#D89058"/><circle cx="106" cy="119" r="2.4" fill="#D89058"/><circle cx="116" cy="122" r="2.4" fill="#D89058"/><circle cx="126" cy="118" r="2.4" fill="#D89058"/>
  <path d="M86 136 Q100 150 114 136" fill="none" stroke="#B0603C" stroke-width="4" stroke-linecap="round"/>
</svg>