<svg xmlns="http://www.w3.org/2000/svg" viewBox="0 0 200 200">
  <circle cx="100" cy="100" r="96" fill="#FFEBD8"/>
  <ellipse cx="100" cy="104" rx="50" ry="54" fill="#FFD9B8"/>
  <ellipse cx="48" cy="106" rx="9" ry="12" fill="#FFD9B8"/>
  <ellipse cx="152" cy="106" rx="9" ry="12" fill="#FFD9B8"/>
  <path d="M56 128 Q50 50 100 44 Q150 50 144 128 L132 128 Q138 62 100 58 Q62 62 68 128 Z" fill="#8A5A3A"/>
  
  <circle cx="80" cy="104" r="5" fill="#33261E"/>
  <circle cx="120" cy="104" r="5" fill="#33261E"/>
  <circle cx="82" cy="102" r="1.6" fill="#FFFFFF"/>
  <circle cx="122" cy="102" r="1.6" fill="#FFFFFF"/>
  <path d="M128 66 L131 73 L139 73 L133 78 L135 85 L128 81 L121 85 L123 78 L117 73 L125 73 Z" fill="#F2B838"/><ellipse cx="74" cy="124" rx="8" ry="5" fill="#FFB0A0" opacity="0.7"/><ellipse cx="126" cy="124" rx="8" ry="5" fill="#FFB0A0" opacity="0.7"/>
  <path d="M90 136 Q100 144 110 136" fill="none" stroke="#C25A78" stroke-width="4" stroke-linecap="round"/>
</svg>