<svg xmlns="http://www.w3.org/2000/svg" viewBox="0 0 200 200">
  <circle cx="100" cy="100" r="96" fill="#EDE8FF"/>
  <ellipse cx="100" cy="104" rx="50" ry="54" fill="#FFD9B8"/>
  <ellipse cx="48" cy="106" rx="9" ry="12" fill="#FFD9B8"/>
  <ellipse cx="152" cy="106" rx="9" ry="12" fill="#FFD9B8"/>
  <circle cx="100" cy="34" r="20" fill="#6B4A3A"/><path d="M56 96 Q56 46 100 44 Q144 46 144 96 Q138 60 100 58 Q62 60 56 96 Z" fill="#6B4A3A"/>
  
  <circle cx="80" cy="104" r="5" fill="#33261E"/>
  <circle cx="120" cy="104" r="5" fill="#33261E"/>
  <circle cx="82" cy="102" r="1.6" fill="#FFFFFF"/>
  <circle cx="122" cy="102" r="1.6" fill="#FFFFFF"/>
  <circle cx="56" cy="128" r="6" fill="#F2B838"/><circle cx="144" cy="128" r="6" fill="#F2B838"/>
  <path d="M88 137 Q100 147 112 137" fill="none" stroke="#C25A78" stroke-width="4" stroke-linecap="round"/>
</svg>