<svg xmlns="http://www.w3.org/2000/svg" viewBox="0 0 100 100">
  <!-- チアガール: 金髪ボブ＋赤リボンの元気な女の子（オリジナル） -->
  <!-- ポンポン（両手上げ） -->
  <g fill="#E8483F">
    <circle cx="13" cy="30" r="5"/><circle cx="19" cy="26" r="5"/><circle cx="16" cy="34" r="5"/><circle cx="21" cy="31" r="4.5"/>
  </g>
  <g fill="#FFD24A">
    <circle cx="87" cy="30" r="5"/><circle cx="81" cy="26" r="5"/><circle cx="84" cy="34" r="5"/><circle cx="79" cy="31" r="4.5"/>
  </g>
  <!-- 腕 -->
  <path d="M30 52 L19 33" stroke="#F5C9A2" stroke-width="5" stroke-linecap="round"/>
  <path d="M70 52 L81 33" stroke="#F5C9A2" stroke-width="5" stroke-linecap="round"/>
  <!-- スカート（赤・プリーツ） -->
  <path d="M36 72 L64 72 L72 88 L28 88 Z" fill="#E8483F" stroke="#B4322C" stroke-width="2.5" stroke-linejoin="round"/>
  <path d="M42 73 L40 87 M50 73 L50 88 M58 73 L60 87" stroke="#B4322C" stroke-width="2"/>
  <!-- 脚 -->
  <path d="M43 88 L42 96 M57 88 L58 96" stroke="#F5C9A2" stroke-width="4.5" stroke-linecap="round"/>
  <!-- 上着（白×赤ライン） -->
  <path d="M35 50 L65 50 L64 74 L36 74 Z" fill="#FFFFFF" stroke="#B4322C" stroke-width="2.5" stroke-linejoin="round"/>
  <path d="M36 66 L64 66" stroke="#E8483F" stroke-width="4"/>
  <!-- 顔 -->
  <circle cx="50" cy="33" r="19" fill="#FBE0C4" stroke="#C99A6E" stroke-width="2"/>
  <!-- 金髪ボブ -->
  <path d="M31 34 Q28 12 50 11 Q72 12 69 34 Q69 22 61 20 Q66 28 60 27 Q52 15 40 20 Q33 23 33 32 Q31 36 31 34 Z" fill="#F7D774" stroke="#D9A93F" stroke-width="2.5" stroke-linejoin="round"/>
  <path d="M31 33 Q29 42 34 45 Q35 37 33 32 Z" fill="#F7D774" stroke="#D9A93F" stroke-width="2"/>
  <path d="M69 33 Q71 42 66 45 Q65 37 67 32 Z" fill="#F7D774" stroke="#D9A93F" stroke-width="2"/>
  <!-- 赤リボン（サイド） -->
  <path d="M64 18 L72 13 L71 21 Z" fill="#E8483F" stroke="#B4322C" stroke-width="1.8" stroke-linejoin="round"/>
  <path d="M64 18 L58 14 L60 22 Z" fill="#E8483F" stroke="#B4322C" stroke-width="1.8" stroke-linejoin="round"/>
  <circle cx="63.5" cy="18" r="2.2" fill="#B4322C"/>
  <!-- 目（ぱっちり） -->
  <circle cx="43" cy="34" r="3.6" fill="#6B4226"/>
  <circle cx="57" cy="34" r="3.6" fill="#6B4226"/>
  <circle cx="44.2" cy="32.8" r="1.3" fill="#FFFFFF"/>
  <circle cx="58.2" cy="32.8" r="1.3" fill="#FFFFFF"/>
  <path d="M39 29 Q43 27 46 29 M54 29 Q57 27 61 29" fill="none" stroke="#D9A93F" stroke-width="1.6" stroke-linecap="round"/>
  <!-- 笑顔＆ほっぺ -->
  <path d="M45 41 Q50 45 55 41" fill="none" stroke="#B4322C" stroke-width="2.2" stroke-linecap="round"/>
  <circle cx="38" cy="39" r="3" fill="#F7A8A0" opacity="0.75"/>
  <circle cx="62" cy="39" r="3" fill="#F7A8A0" opacity="0.75"/>
</svg>
